<svg width="1920" height="1080" viewBox="0 0 1920 1080" fill="none" xmlns="http://www.w3.org/2000/svg">
<g clip-path="url(#clip0_20_29)">
<path d="M1920 0H0V1080H1920V0Z" fill="#050712"/>
<g filter="url(#filter0_f_20_29)">
<path d="M1952.07 922.929C1825.87 909.739 1699.67 896.548 1580.07 848.956C1460.56 801.365 1347.66 719.373 1287.35 615.678C1227.04 511.882 1219.33 386.483 1176.92 272.086C1134.42 157.689 1057.21 54.2944 980 -49L1952 -49.0706L1952.07 922.929Z" fill="#080C1E"/>
<path d="M1952.06 801.429C1841.66 789.937 1731.16 778.345 1626.56 736.753C1521.95 695.061 1423.25 623.368 1370.44 532.572C1317.64 441.775 1310.93 331.976 1273.82 231.879C1236.61 131.781 1169.11 41.3863 1101.5 -49.0088L1952 -49.0706L1952.06 801.429Z" fill="#041335"/>
<path d="M1952.05 679.929C1857.35 670.036 1762.75 660.143 1673.05 624.45C1583.45 588.756 1498.74 527.262 1453.54 449.466C1408.33 371.669 1402.52 277.569 1370.62 191.772C1338.81 105.974 1280.91 28.4782 1223 -49.0176L1952 -49.0706L1952.05 679.929Z" fill="#00184D"/>
<path d="M1952.04 558.429C1873.14 550.235 1794.24 541.941 1719.54 512.246C1644.84 482.452 1574.33 431.257 1536.63 366.36C1498.93 301.562 1494.12 223.163 1467.51 151.665C1441.01 80.1665 1392.8 15.57 1344.5 -49.0265L1952 -49.0706L1952.04 558.429Z" fill="#001A65"/>
<path d="M1952.04 436.929C1888.93 430.334 1825.83 423.739 1766.03 399.943C1706.23 376.147 1649.83 335.151 1619.72 283.254C1589.52 231.456 1585.72 168.656 1564.41 111.458C1543.21 54.2591 1504.6 2.66192 1466 -49.0353L1952 -49.0706L1952.04 436.929Z" fill="#001B7D"/>
<path d="M1952.03 315.429C1904.73 310.533 1857.33 305.536 1812.52 287.74C1767.72 269.843 1725.42 239.146 1702.72 200.248C1680.12 161.349 1677.21 114.249 1661.31 71.3506C1645.41 28.4517 1616.5 -10.2462 1587.5 -49.0441L1952 -49.0706L1952.03 315.429Z" fill="#081894"/>
<path d="M1952.02 193.929C1920.42 190.632 1888.92 187.334 1859.02 175.436C1829.12 163.538 1800.91 143.04 1785.81 117.142C1770.81 91.1426 1768.81 59.8427 1758.21 31.2435C1747.6 2.64429 1728.3 -23.2543 1709 -49.0529L1952 -49.0706L1952.02 193.929Z" fill="#2A0EAA"/>
<path d="M1952.01 72.4294C1936.21 70.8306 1920.41 69.1317 1905.51 63.2328C1890.61 57.2339 1876.51 47.0349 1868.91 34.0355C1861.41 21.036 1860.4 5.33609 1855.1 -8.96352C1849.8 -23.2631 1840.2 -36.1624 1830.5 -49.0617L1952 -49.0706L1952.01 72.4294Z" fill="#3900B4"/>
</g>
<g filter="url(#filter1_f_20_29)">
<path d="M-86 167.071C22.1055 242.963 130.311 318.755 230.515 375.048C330.719 431.24 422.922 467.734 527.826 525.226C632.73 582.818 750.236 661.21 812.044 767.005C873.851 872.801 879.961 1005.9 886.071 1139L-85.9294 1139.07L-86 167.071Z" fill="#080C1E"/>
<path d="M-85.9912 288.571C8.61361 354.964 103.318 421.357 190.922 470.55C278.626 519.644 359.328 551.638 451.032 602.032C542.835 652.325 645.74 721.017 699.847 813.514C753.854 906.11 759.262 1022.51 764.571 1139.01L-85.9295 1139.07L-85.9912 288.571Z" fill="#041335"/>
<path d="M-85.9824 410.071C-4.87829 466.965 76.2258 523.859 151.429 566.053C226.532 608.148 295.734 635.543 374.337 678.737C453.04 721.831 541.144 780.725 587.55 860.022C633.956 939.418 638.463 1039.22 643.07 1139.02L-85.9295 1139.07L-85.9824 410.071Z" fill="#00184D"/>
<path d="M-85.9735 531.571C-18.3701 578.966 49.2334 626.361 111.836 661.556C174.438 696.652 232.14 719.447 297.643 755.443C363.245 791.338 436.649 840.433 475.354 906.53C513.958 972.627 517.765 1055.83 521.571 1139.03L-85.9294 1139.07L-85.9735 531.571Z" fill="#001A65"/>
<path d="M-85.9647 653.071C-31.862 690.967 22.1408 728.963 72.2428 757.059C122.345 785.155 168.446 803.452 220.948 832.148C273.35 860.944 332.153 900.14 363.057 953.038C393.961 1005.94 397.066 1072.54 400.071 1139.04L-85.9294 1139.07L-85.9647 653.071Z" fill="#001B7D"/>
<path d="M-85.9559 774.571C-45.3539 803.068 -4.8518 831.465 32.7497 852.562C70.2513 873.659 104.852 887.357 144.254 908.854C183.555 930.451 227.657 959.848 250.86 999.546C273.963 1039.24 276.267 1089.14 278.571 1139.04L-85.9295 1139.07L-85.9559 774.571Z" fill="#081894"/>
<path d="M-85.9471 896.071C-58.9458 915.069 -31.8444 933.967 -6.84337 948.065C18.2576 962.063 41.2583 971.261 67.4594 985.659C93.7604 999.958 123.062 1019.66 138.564 1046.05C154.066 1072.55 155.568 1105.75 157.07 1139.05L-85.9295 1139.07L-85.9471 896.071Z" fill="#2A0EAA"/>
<path d="M-85.9382 1017.57C-72.4375 1027.07 -58.9369 1036.57 -46.3363 1043.57C-33.8358 1050.57 -22.3355 1055.17 -9.23498 1062.36C3.86554 1069.56 18.5663 1079.36 26.3672 1092.56C34.0682 1105.76 34.7694 1122.46 35.5706 1139.06L-85.9294 1139.07L-85.9382 1017.57Z" fill="#431C52"/>
</g>
<g clip-path="url(#clip1_20_29)" filter="url(#filter2_f_20_29)">
<g filter="url(#filter3_f_20_29)">
<path d="M1068.94 725.106C892.866 723.898 749.147 865.623 747.94 1041.66C746.732 1217.69 888.493 1361.37 1064.57 1362.58C1240.65 1363.79 1384.37 1222.06 1385.58 1046.03C1386.79 869.997 1245.02 726.314 1068.94 725.106Z" fill="#6F0A71" fill-opacity="0.47"/>
</g>
<g filter="url(#filter4_f_20_29)">
<path d="M561.528 -379.54C363.473 -380.899 201.817 -221.486 200.459 -23.4825C199.101 174.521 358.555 336.136 556.609 337.495C754.664 338.853 916.32 179.441 917.678 -18.5629C919.036 -216.567 759.582 -378.182 561.528 -379.54Z" fill="#6F0A71" fill-opacity="0.47"/>
</g>
</g>
</g>
<defs>
<filter id="filter0_f_20_29" x="895" y="-134.071" width="1142.07" height="1142" filterUnits="userSpaceOnUse" color-interpolation-filters="sRGB">
<feFlood flood-opacity="0" result="BackgroundImageFix"/>
<feBlend mode="normal" in="SourceGraphic" in2="BackgroundImageFix" result="shape"/>
<feGaussianBlur stdDeviation="42.5" result="effect1_foregroundBlur_20_29"/>
</filter>
<filter id="filter1_f_20_29" x="-171" y="82.0706" width="1142.07" height="1142" filterUnits="userSpaceOnUse" color-interpolation-filters="sRGB">
<feFlood flood-opacity="0" result="BackgroundImageFix"/>
<feBlend mode="normal" in="SourceGraphic" in2="BackgroundImageFix" result="shape"/>
<feGaussianBlur stdDeviation="42.5" result="effect1_foregroundBlur_20_29"/>
</filter>
<filter id="filter2_f_20_29" x="-120.439" y="-275.679" width="2160.88" height="1514.36" filterUnits="userSpaceOnUse" color-interpolation-filters="sRGB">
<feFlood flood-opacity="0" result="BackgroundImageFix"/>
<feBlend mode="normal" in="SourceGraphic" in2="BackgroundImageFix" result="shape"/>
<feGaussianBlur stdDeviation="50" result="effect1_foregroundBlur_20_29"/>
</filter>
<filter id="filter3_f_20_29" x="247.932" y="225.099" width="1637.65" height="1637.49" filterUnits="userSpaceOnUse" color-interpolation-filters="sRGB">
<feFlood flood-opacity="0" result="BackgroundImageFix"/>
<feBlend mode="normal" in="SourceGraphic" in2="BackgroundImageFix" result="shape"/>
<feGaussianBlur stdDeviation="250" result="effect1_foregroundBlur_20_29"/>
</filter>
<filter id="filter4_f_20_29" x="-299.549" y="-879.549" width="1717.24" height="1717.05" filterUnits="userSpaceOnUse" color-interpolation-filters="sRGB">
<feFlood flood-opacity="0" result="BackgroundImageFix"/>
<feBlend mode="normal" in="SourceGraphic" in2="BackgroundImageFix" result="shape"/>
<feGaussianBlur stdDeviation="250" result="effect1_foregroundBlur_20_29"/>
</filter>
<clipPath id="clip0_20_29">
<rect width="1920" height="1080" fill="white"/>
</clipPath>
<clipPath id="clip1_20_29">
<rect width="1952" height="1301" fill="white" transform="translate(1931.52 1138.68) rotate(-179.607)"/>
</clipPath>
</defs>
</svg>
