<svg width="25" height="25" viewBox="0 0 34 32" fill="none" xmlns="http://www.w3.org/2000/svg">
<path d="M5.32109 31.9924C5.28747 31.9853 5.0949 31.9575 4.89316 31.9306C4.49428 31.8774 4.06131 31.7771 3.99653 31.723C3.97411 31.7042 3.83656 31.6481 3.69086 31.5983C3.54516 31.5484 3.24628 31.3971 3.02668 31.2619C2.80709 31.1268 2.61452 31.0159 2.59875 31.0156C2.58298 31.0153 2.48755 30.9383 2.38668 30.8445C2.2858 30.7507 2.1063 30.5985 1.98777 30.5063C1.86925 30.4141 1.64933 30.1872 1.49906 30.0019C1.34879 29.8167 1.20328 29.6464 1.17571 29.6236C1.05942 29.5272 0.569334 28.6334 0.406179 28.2203C0.211354 27.7269 0.1525 27.53 0.12799 27.2898C0.118988 27.2015 0.0852056 26.9423 0.0529169 26.7137C0.00302906 26.3604 -0.00460969 24.9242 0.00206458 17.1525C0.00638398 12.1225 0.0232534 7.91345 0.0395516 7.79913C0.0558498 7.68482 0.0841673 7.55387 0.102479 7.50814C0.12079 7.46241 0.183006 7.22097 0.240735 6.9716C0.36583 6.43123 0.664013 5.77427 0.978181 5.34685C1.09597 5.1866 1.19972 5.03278 1.20874 5.00503C1.24795 4.88436 2.03686 4.11177 2.44126 3.79802C2.95348 3.4006 3.63177 3.04563 4.1188 2.9201C4.29812 2.87388 4.55488 2.80636 4.68938 2.77006C5.06017 2.66997 5.67709 2.65051 8.52042 2.64918C10.4539 2.64828 11.1657 2.66094 11.2714 2.69813C11.4555 2.76287 11.6628 2.94596 11.7163 3.09121C11.7746 3.24941 11.7039 3.6009 11.5806 3.76583C11.4935 3.88227 11.2624 3.99544 11.1116 3.99544C11.085 3.99544 10.9848 4.03188 10.8889 4.07642C10.6448 4.18986 10.2858 4.33333 10.2051 4.34968C10.0253 4.38613 8.95882 4.90841 8.76989 5.05256C8.44984 5.29673 8.49123 5.29131 6.83949 5.30551C5.3207 5.31856 5.31098 5.3192 4.96033 5.42892C4.54272 5.55959 4.14896 5.75562 3.95692 5.92847C3.88071 5.99706 3.72384 6.13572 3.6083 6.23659C3.49277 6.33747 3.35621 6.48713 3.30483 6.56916C3.25346 6.65119 3.17011 6.76507 3.11961 6.82223C3.03259 6.92075 2.79795 7.38402 2.77786 7.497C2.77271 7.52599 2.72789 7.72781 2.67826 7.94549L2.58802 8.34127L2.59989 17.5275C2.61116 26.2465 2.6155 26.7249 2.68515 26.9352C2.76044 27.1624 2.9696 27.5827 3.1542 27.8776C3.27291 28.0673 3.9059 28.7204 4.05827 28.8105C4.71838 29.2006 4.94742 29.2934 5.36185 29.339C5.50755 29.355 9.60656 29.3683 14.4708 29.3684L23.3148 29.3687L23.7531 29.2579C24.4294 29.087 24.6906 28.9286 25.2599 28.3439C25.6731 27.9196 25.8918 27.56 26.0238 27.0879C26.0749 26.905 26.1254 26.7273 26.1361 26.693C26.1824 26.5445 26.1911 26.1654 26.2013 23.8454C26.2134 21.1196 26.2 21.25 26.4913 21.0233C26.5711 20.9612 26.7052 20.8813 26.7892 20.8457C26.9646 20.7713 27.2395 20.5743 27.6018 20.2635C27.865 20.0376 28.0701 19.9505 28.2577 19.9849C28.434 20.0171 28.6034 20.1369 28.6931 20.2926C28.7744 20.4338 28.7761 20.4973 28.78 23.5336C28.7844 26.9182 28.7857 26.8937 28.5407 27.7754C28.2686 28.7545 27.8049 29.5171 26.9909 30.3246C26.7636 30.55 26.4854 30.7975 26.3727 30.8745C26.2599 30.9515 26.0774 31.0797 25.967 31.1593C25.8566 31.239 25.6456 31.3557 25.4983 31.4186C25.3509 31.4816 25.2211 31.5442 25.2099 31.5577C25.1696 31.6063 24.9352 31.6845 24.3744 31.8366L23.8038 31.9913L14.593 31.9982C9.52709 32.0021 5.35472 31.9994 5.32109 31.9924V31.9924ZM8.93817 26.6664C8.89894 26.6547 8.86685 26.6301 8.86685 26.6115C8.86685 26.593 8.83201 26.5686 8.78943 26.5572C8.74685 26.5459 8.62644 26.408 8.52185 26.251C8.20227 25.7711 7.88871 25.2609 7.88871 25.2208C7.88871 25.1833 7.52618 24.5297 7.4831 24.4896C7.47082 24.4782 7.39043 24.3286 7.30445 24.1571C7.21848 23.9856 7.04977 23.6582 6.92955 23.4296C6.71037 23.0128 6.53371 22.6186 6.30532 22.037C6.23799 21.8655 6.15417 21.6691 6.11905 21.6005C6.08393 21.5319 6.05509 21.4415 6.05495 21.3996C6.05483 21.3577 6.0007 21.1858 5.93469 21.0177C5.81417 20.7107 5.72698 20.425 5.70658 20.2702C5.70055 20.2245 5.6554 20.0468 5.60623 19.8753C5.47349 19.4123 5.40556 19.1261 5.38427 18.94C5.3738 18.8485 5.34718 18.6666 5.3251 18.5358C5.22189 17.924 5.23906 16.0973 5.35821 15.0116C5.41086 14.5319 5.63656 13.2871 5.68924 13.1859C5.70808 13.1497 5.7894 12.8777 5.86995 12.5814C5.9505 12.2851 6.03274 12.0324 6.0527 12.0198C6.07266 12.0072 6.10264 11.9414 6.11933 11.8736C6.16416 11.6914 6.35746 11.2732 6.48469 11.0832C6.54592 10.9917 6.64949 10.8096 6.71485 10.6785C6.7802 10.5474 6.85617 10.4164 6.88366 10.3875C6.91114 10.3586 7.03812 10.1853 7.16582 10.0024C7.43565 9.61587 7.49466 9.54559 7.96361 9.05209C8.34261 8.65326 8.73475 8.31329 9.15214 8.02171C9.29784 7.91992 9.49686 7.77742 9.5944 7.70503C9.69194 7.63265 9.81115 7.56094 9.85931 7.54569C9.90747 7.53044 10.0386 7.45669 10.1507 7.38181C10.2627 7.30693 10.4828 7.18555 10.6397 7.11207C10.7966 7.03859 11.0545 6.91467 11.2127 6.83669C11.3709 6.75871 11.5463 6.68641 11.6025 6.67602C11.6586 6.66563 11.9111 6.57405 12.1635 6.47251C12.416 6.37098 12.7174 6.26532 12.8334 6.23772C12.9494 6.21012 13.1469 6.15368 13.2722 6.11229C13.3976 6.0709 13.5889 6.02617 13.6974 6.01289C13.8059 5.99961 14.0702 5.94201 14.2846 5.8849C14.4991 5.8278 14.8396 5.76326 15.0413 5.74149C15.2431 5.71972 15.4999 5.68218 15.6119 5.65806C15.9098 5.59396 16.44 5.52916 17.6905 5.40401C17.9146 5.38157 19.3268 5.3501 20.8287 5.33406L23.5593 5.30491L23.5797 3.10168C23.6027 0.616183 23.5877 0.73341 23.9264 0.392755C24.3047 0.0123548 24.7394 -0.0876225 25.3077 0.0750317L25.5563 0.146166L29.6999 4.37353C31.9789 6.69857 33.8756 8.66368 33.9148 8.74042C33.9649 8.83858 33.9893 8.99813 33.9971 9.27842C34.0067 9.6246 33.9957 9.70367 33.9128 9.88119C33.8367 10.0442 32.9757 10.9431 29.6577 14.3237C27.37 16.6547 25.4868 18.5504 25.473 18.5362C25.4591 18.5221 25.3857 18.537 25.3099 18.5694C25.234 18.6017 25.0288 18.6309 24.8538 18.6343C24.4614 18.6419 24.2592 18.5598 23.9588 18.2707C23.5849 17.9109 23.6029 18.0411 23.5797 15.5312L23.5593 13.328L21.3585 13.3268C20.148 13.3261 18.9743 13.3403 18.7501 13.3583C18.526 13.3763 18.1592 13.4001 17.935 13.4111C17.5609 13.4296 17.0691 13.4972 16.1621 13.6548C15.8077 13.7164 15.0788 13.9033 14.6236 14.0493C14.4835 14.0942 14.3689 14.1242 14.3689 14.1159C14.3689 14.0898 13.8314 14.3046 13.5334 14.4497C13.3765 14.5262 13.2022 14.6087 13.1462 14.6331C13.0902 14.6575 12.8728 14.7901 12.6632 14.9277C12.4536 15.0653 12.2741 15.1779 12.2642 15.1779C12.2543 15.1779 12.0627 15.3416 11.8384 15.5416C11.4775 15.8636 10.9479 16.4962 10.7965 16.7863C10.7703 16.8364 10.6478 17.0609 10.5243 17.2852C10.4008 17.5094 10.2768 17.7771 10.2486 17.88C10.2205 17.9828 10.1848 18.0857 10.1693 18.1086C10.1259 18.1726 9.97262 18.6729 9.94643 18.8361C9.93358 18.9161 9.87714 19.1682 9.821 19.3962C9.76485 19.6243 9.7013 20.0078 9.67978 20.2484C9.65825 20.4891 9.62331 20.8169 9.60212 20.9769C9.51764 21.6152 9.54364 23.8814 9.64243 24.4896C9.66285 24.6154 9.68899 24.8866 9.70052 25.0924C9.71205 25.2982 9.74303 25.6261 9.76938 25.8211C9.82548 26.2365 9.79404 26.3399 9.55111 26.5392C9.40111 26.6622 9.1204 26.7204 8.93817 26.6664V26.6664Z" fill="white"/>
</svg>
